<svg width="835" height="269" xmlns="http://www.w3.org/2000/svg" xmlns:xlink="http://www.w3.org/1999/xlink" overflow="hidden"><defs><clipPath id="clip0"><path d="M0 0 835 0 835 269 0 269Z" fill-rule="evenodd" clip-rule="evenodd"/></clipPath></defs><g clip-path="url(#clip0)"><rect x="0" y="0" width="835" height="268.78" fill="#FFFFFF" transform="scale(1 1.00082)"/><path d="M0 0 60.6698 0.000104966" stroke="#BFBFBF" stroke-width="1.00001" stroke-miterlimit="8" stroke-dasharray="3.00003 1.00001" fill="none" fill-rule="evenodd" transform="matrix(-1 -8.74228e-08 8.74944e-08 -1.00082 432.17 72.5001)"/><path d="M0 8.49306C-1.14582e-15 3.80247 4.02943-1.08128e-15 8.99999-2.16256e-15 13.9705-4.32512e-15 18 3.80247 18 8.49306 18 13.1836 13.9705 16.9861 8.99999 16.9861 4.02943 16.9861-5.72909e-15 13.1836 0 8.49306Z" stroke="#4472C4" stroke-width="1.00001" stroke-miterlimit="8" fill="#FFFFFF" fill-rule="evenodd" transform="matrix(1 0 -0 1.00082 353.5 105.5)"/><text font-family="Times New Roman,Times New Roman_MSFontService,sans-serif" font-weight="700" font-size="16" transform="matrix(1 0 0 1.00082 298.836 142)">Extract enclosing subgraphs</text><path d="M1.82271e-06-0.500005 22.1289-0.499925 22.1289 0.500086-1.82271e-06 0.500005ZM20.7959-3.99913 28.7943 0.000104966 20.7958 3.99928Z" transform="matrix(1 0 0 -1.00082 462.5 59.5)"/><path d="M1.82271e-06-0.500005 22.1289-0.499925 22.1289 0.500086-1.82271e-06 0.500005ZM20.7959-3.99913 28.7943 0.000104966 20.7958 3.99928Z" transform="matrix(1 0 0 -1.00082 462.5 209.5)"/><rect x="0" y="0" width="199" height="239.803" stroke="#000000" stroke-width="2.00002" stroke-linejoin="round" stroke-miterlimit="10" fill="none" transform="matrix(1 0 -0 1.00082 502 23)"/><text font-family="Times New Roman,Times New Roman_MSFontService,sans-serif" font-weight="400" font-size="13" transform="matrix(1 0 0 1.00082 516.198 38)">user average rating = 3<tspan x="0" y="15.9869">item average rating = 5</tspan><tspan x="0" y="31.9738">item total ratings received = 2</tspan><tspan x="0" y="47.9607">similar users’ average rating= 5</tspan><tspan x="0" y="63.9476"># of</tspan><tspan font-family="Cambria Math,Cambria Math_MSFontService,sans-serif" x="24.1618" y="63.9476">(</tspan><tspan font-family="Cambria Math,Cambria Math_MSFontService,sans-serif" x="29.6607" y="63.9476"> </tspan><tspan font-family="Cambria Math,Cambria Math_MSFontService,sans-serif" x="32.6601" y="63.9476"> </tspan><tspan font-family="Cambria Math,Cambria Math_MSFontService,sans-serif" x="35.6595" y="63.9476"> </tspan><tspan font-family="Cambria Math,Cambria Math_MSFontService,sans-serif" x="38.6589" y="63.9476"> </tspan><tspan font-family="Cambria Math,Cambria Math_MSFontService,sans-serif" x="41.6583" y="63.9476">→</tspan><tspan font-family="Cambria Math,Cambria Math_MSFontService,sans-serif" font-size="9" x="52.8228" y="66.9451">4</tspan><tspan font-family="Cambria Math,Cambria Math_MSFontService,sans-serif" x="59.0415" y="63.9476"> </tspan><tspan font-family="Cambria Math,Cambria Math_MSFontService,sans-serif" x="62.041" y="63.9476"> </tspan><tspan font-family="Cambria Math,Cambria Math_MSFontService,sans-serif" x="65.0403" y="63.9476"> </tspan><tspan font-family="Cambria Math,Cambria Math_MSFontService,sans-serif" x="68.0397" y="63.9476"> </tspan><tspan font-family="Cambria Math,Cambria Math_MSFontService,sans-serif" x="71.0391" y="63.9476"> </tspan><tspan font-family="Cambria Math,Cambria Math_MSFontService,sans-serif" x="74.0385" y="63.9476">→</tspan><tspan font-family="Cambria Math,Cambria Math_MSFontService,sans-serif" font-size="9" x="85.2029" y="66.9451">3</tspan><tspan font-family="Cambria Math,Cambria Math_MSFontService,sans-serif" x="91.4218" y="63.9476"> </tspan><tspan font-family="Cambria Math,Cambria Math_MSFontService,sans-serif" x="94.4211" y="63.9476"> </tspan><tspan font-family="Cambria Math,Cambria Math_MSFontService,sans-serif" x="97.4205" y="63.9476"> </tspan><tspan font-family="Cambria Math,Cambria Math_MSFontService,sans-serif" x="100.42" y="63.9476"> </tspan><tspan font-family="Cambria Math,Cambria Math_MSFontService,sans-serif" x="103.419" y="63.9476"> </tspan><tspan font-family="Cambria Math,Cambria Math_MSFontService,sans-serif" x="106.419" y="63.9476">→</tspan><tspan font-family="Cambria Math,Cambria Math_MSFontService,sans-serif" font-size="9" x="117.583" y="66.9451">5</tspan><tspan font-family="Cambria Math,Cambria Math_MSFontService,sans-serif" x="123.802" y="63.9476"> </tspan><tspan font-family="Cambria Math,Cambria Math_MSFontService,sans-serif" x="126.801" y="63.9476"> </tspan><tspan font-family="Cambria Math,Cambria Math_MSFontService,sans-serif" x="129.801" y="63.9476"> </tspan><tspan font-family="Cambria Math,Cambria Math_MSFontService,sans-serif" x="132.8" y="63.9476"> </tspan><tspan font-family="Cambria Math,Cambria Math_MSFontService,sans-serif" x="135.8" y="63.9476">)</tspan><tspan x="144.298" y="63.9476">= 1</tspan><tspan x="0" y="79.9345"># of</tspan><tspan font-family="Cambria Math,Cambria Math_MSFontService,sans-serif" x="24.1618" y="79.9345">(</tspan><tspan font-family="Cambria Math,Cambria Math_MSFontService,sans-serif" x="29.6607" y="79.9345"> </tspan><tspan font-family="Cambria Math,Cambria Math_MSFontService,sans-serif" x="32.6601" y="79.9345"> </tspan><tspan font-family="Cambria Math,Cambria Math_MSFontService,sans-serif" x="35.6595" y="79.9345"> </tspan><tspan font-family="Cambria Math,Cambria Math_MSFontService,sans-serif" x="38.6589" y="79.9345"> </tspan><tspan font-family="Cambria Math,Cambria Math_MSFontService,sans-serif" x="41.6583" y="79.9345">→</tspan><tspan font-family="Cambria Math,Cambria Math_MSFontService,sans-serif" font-size="9" x="52.8228" y="82.932">2</tspan><tspan font-family="Cambria Math,Cambria Math_MSFontService,sans-serif" x="59.0415" y="79.9345"> </tspan><tspan font-family="Cambria Math,Cambria Math_MSFontService,sans-serif" x="62.041" y="79.9345"> </tspan><tspan font-family="Cambria Math,Cambria Math_MSFontService,sans-serif" x="65.0403" y="79.9345"> </tspan><tspan font-family="Cambria Math,Cambria Math_MSFontService,sans-serif" x="68.0397" y="79.9345"> </tspan><tspan font-family="Cambria Math,Cambria Math_MSFontService,sans-serif" x="71.0391" y="79.9345"> </tspan><tspan font-family="Cambria Math,Cambria Math_MSFontService,sans-serif" x="74.0385" y="79.9345">→</tspan><tspan font-family="Cambria Math,Cambria Math_MSFontService,sans-serif" font-size="9" x="84.8964" y="82.932">1</tspan><tspan font-family="Cambria Math,Cambria Math_MSFontService,sans-serif" x="91.1151" y="79.9345"> </tspan><tspan font-family="Cambria Math,Cambria Math_MSFontService,sans-serif" x="94.1145" y="79.9345"> </tspan><tspan font-family="Cambria Math,Cambria Math_MSFontService,sans-serif" x="97.114" y="79.9345"> </tspan><tspan font-family="Cambria Math,Cambria Math_MSFontService,sans-serif" x="100.113" y="79.9345"> </tspan><tspan font-family="Cambria Math,Cambria Math_MSFontService,sans-serif" x="103.113" y="79.9345"> </tspan><tspan font-family="Cambria Math,Cambria Math_MSFontService,sans-serif" x="106.112" y="79.9345">→</tspan><tspan font-family="Cambria Math,Cambria Math_MSFontService,sans-serif" font-size="9" x="117.277" y="82.932">5</tspan><tspan font-family="Cambria Math,Cambria Math_MSFontService,sans-serif" x="123.495" y="79.9345"> </tspan><tspan font-family="Cambria Math,Cambria Math_MSFontService,sans-serif" x="126.495" y="79.9345"> </tspan><tspan font-family="Cambria Math,Cambria Math_MSFontService,sans-serif" x="129.494" y="79.9345"> </tspan><tspan font-family="Cambria Math,Cambria Math_MSFontService,sans-serif" x="132.494" y="79.9345"> </tspan><tspan font-family="Cambria Math,Cambria Math_MSFontService,sans-serif" x="135.493" y="79.9345">)</tspan><tspan x="143.991" y="79.9345">= 1</tspan><tspan font-weight="700" font-size="16" x="11.2412" y="103.915">Learn graph patterns</tspan><tspan x="-0.000244141" y="131.892">user average rating = 4</tspan><tspan x="-0.000244141" y="147.879">item average rating = 1</tspan><tspan font-family="Cambria Math,Cambria Math_MSFontService,sans-serif" x="-0.000244141" y="163.866">item total ratings received = 1</tspan><tspan x="-0.000244141" y="179.853">similar users’ average rating= 1</tspan><tspan x="-0.000244141" y="195.839"># of</tspan><tspan font-family="Cambria Math,Cambria Math_MSFontService,sans-serif" x="24.1616" y="195.839">(</tspan><tspan font-family="Cambria Math,Cambria Math_MSFontService,sans-serif" x="29.6605" y="195.839"> </tspan><tspan font-family="Cambria Math,Cambria Math_MSFontService,sans-serif" x="32.6599" y="195.839"> </tspan><tspan font-family="Cambria Math,Cambria Math_MSFontService,sans-serif" x="35.6593" y="195.839"> </tspan><tspan font-family="Cambria Math,Cambria Math_MSFontService,sans-serif" x="38.6587" y="195.839"> </tspan><tspan font-family="Cambria Math,Cambria Math_MSFontService,sans-serif" x="41.6581" y="195.839">→</tspan><tspan font-family="Cambria Math,Cambria Math_MSFontService,sans-serif" font-size="9" x="52.8226" y="198.837">4</tspan><tspan font-family="Cambria Math,Cambria Math_MSFontService,sans-serif" x="59.0413" y="195.839"> </tspan><tspan font-family="Cambria Math,Cambria Math_MSFontService,sans-serif" x="62.0407" y="195.839"> </tspan><tspan font-family="Cambria Math,Cambria Math_MSFontService,sans-serif" x="65.0401" y="195.839"> </tspan><tspan font-family="Cambria Math,Cambria Math_MSFontService,sans-serif" x="68.0396" y="195.839"> </tspan><tspan font-family="Cambria Math,Cambria Math_MSFontService,sans-serif" x="71.0389" y="195.839"> </tspan><tspan font-family="Cambria Math,Cambria Math_MSFontService,sans-serif" x="74.0383" y="195.839">→</tspan><tspan font-family="Cambria Math,Cambria Math_MSFontService,sans-serif" font-size="9" x="85.2028" y="198.837">4</tspan><tspan font-family="Cambria Math,Cambria Math_MSFontService,sans-serif" x="91.4215" y="195.839"> </tspan><tspan font-family="Cambria Math,Cambria Math_MSFontService,sans-serif" x="94.4209" y="195.839"> </tspan><tspan font-family="Cambria Math,Cambria Math_MSFontService,sans-serif" x="97.4203" y="195.839"> </tspan><tspan font-family="Cambria Math,Cambria Math_MSFontService,sans-serif" x="100.42" y="195.839"> </tspan><tspan font-family="Cambria Math,Cambria Math_MSFontService,sans-serif" x="103.419" y="195.839"> </tspan><tspan font-family="Cambria Math,Cambria Math_MSFontService,sans-serif" x="106.419" y="195.839">→</tspan><tspan font-family="Cambria Math,Cambria Math_MSFontService,sans-serif" font-size="9" x="117.276" y="198.837">1</tspan><tspan font-family="Cambria Math,Cambria Math_MSFontService,sans-serif" x="123.495" y="195.839"> </tspan><tspan font-family="Cambria Math,Cambria Math_MSFontService,sans-serif" x="126.495" y="195.839"> </tspan><tspan font-family="Cambria Math,Cambria Math_MSFontService,sans-serif" x="129.494" y="195.839"> </tspan><tspan font-family="Cambria Math,Cambria Math_MSFontService,sans-serif" x="132.493" y="195.839"> </tspan><tspan font-family="Cambria Math,Cambria Math_MSFontService,sans-serif" x="135.493" y="195.839">)</tspan><tspan x="143.991" y="195.839">= 1</tspan><tspan font-family="Cambria Math,Cambria Math_MSFontService,sans-serif" x="-0.000244141" y="211.826">……</tspan></text><path d="M1.82271e-06-0.500005 22.1289-0.499925 22.1289 0.500086-1.82271e-06 0.500005ZM20.7959-3.99913 28.7943 0.000104966 20.7958 3.99928Z" transform="matrix(1 0 0 -1.00082 712.5 59.5)"/><path d="M1.82271e-06-0.500005 22.1289-0.499925 22.1289 0.500086-1.82271e-06 0.500005ZM20.7959-3.99913 28.7943 0.000104966 20.7958 3.99928Z" transform="matrix(1 0 0 -1.00082 713.5 209.5)"/><text font-family="Times New Roman,Times New Roman_MSFontService,sans-serif" font-weight="700" font-size="16" transform="matrix(1 0 0 1.00082 775.78 64)">(like)<tspan x="-54.1124" y="79.9345">Predict ratings</tspan><tspan font-family="Calibri,Calibri_MSFontService,sans-serif" x="-246.043" y="-48.9599">Graph neural network</tspan></text><path d="M0 8.493C-1.14582e-15 3.80245 4.02943-1.08127e-15 8.99999-2.16255e-15 13.9705-4.32509e-15 18 3.80245 18 8.493 18 13.1836 13.9705 16.986 8.99999 16.986 4.02943 16.986-5.72909e-15 13.1836 0 8.493Z" stroke="#7030A0" stroke-width="1.00001" stroke-miterlimit="8" fill="#FFFFFF" fill-rule="evenodd" transform="matrix(1 0 -0 1.00082 431.5 22.5)"/><path d="M0 8.99264C-1.14582e-15 4.02614 4.02943-1.14488e-15 8.99999-2.28977e-15 13.9705-4.57953e-15 18 4.02614 18 8.99264 18 13.9591 13.9705 17.9853 8.99999 17.9853 4.02943 17.9853-5.72909e-15 13.9591 0 8.99264Z" stroke="#7030A0" stroke-width="1.00001" stroke-miterlimit="8" fill="#7030A0" fill-rule="evenodd" transform="matrix(1 0 -0 1.00082 431.5 63.5)"/><path d="M0 8.49306C-1.14582e-15 3.80247 4.02943-1.08128e-15 8.99999-2.16256e-15 13.9705-4.32512e-15 18 3.80247 18 8.49306 18 13.1836 13.9705 16.9861 8.99999 16.9861 4.02943 16.9861-5.72909e-15 13.1836 0 8.49306Z" stroke="#7030A0" stroke-width="1.00001" stroke-miterlimit="8" fill="#FFFFFF" fill-rule="evenodd" transform="matrix(1 0 -0 1.00082 431.5 105.5)"/><path d="M0 8.99264C-1.14582e-15 4.02614 4.02943-1.14488e-15 8.99999-2.28977e-15 13.9705-4.57953e-15 18 4.02614 18 8.99264 18 13.9591 13.9705 17.9853 8.99999 17.9853 4.02943 17.9853-5.72909e-15 13.9591 0 8.99264Z" stroke="#4472C4" stroke-width="1.00001" stroke-miterlimit="8" fill="#4472C4" fill-rule="evenodd" transform="matrix(1 0 -0 1.00082 353.5 63.5)"/><path d="M0 8.493C-1.14582e-15 3.80245 4.02943-1.08127e-15 8.99999-2.16255e-15 13.9705-4.32509e-15 18 3.80245 18 8.493 18 13.1836 13.9705 16.986 8.99999 16.986 4.02943 16.986-5.72909e-15 13.1836 0 8.493Z" stroke="#4472C4" stroke-width="1.00001" stroke-miterlimit="8" fill="#FFFFFF" fill-rule="evenodd" transform="matrix(1 0 -0 1.00082 353.5 22.5)"/><path d="M0 0 60.6698 41.6706" stroke="#000000" stroke-width="1.00001" stroke-miterlimit="8" fill="none" fill-rule="evenodd" transform="matrix(-1 -8.74228e-08 -8.74944e-08 1.00082 432.17 30.5001)"/><path d="M0 0 60.6698 41.6707" stroke="#000000" stroke-width="1.00001" stroke-miterlimit="8" fill="none" fill-rule="evenodd" transform="matrix(-1 -8.74228e-08 8.74944e-08 -1.00082 432.17 114.205)"/><path d="M0 0 60.6698 41.6706" stroke="#000000" stroke-width="1.00001" stroke-miterlimit="8" fill="none" fill-rule="evenodd" transform="matrix(-1 -8.74228e-08 -8.74944e-08 1.00082 432.17 72.5)"/><path d="M0 0 60.6698 41.6707" stroke="#000000" stroke-width="1.00001" stroke-miterlimit="8" fill="none" fill-rule="evenodd" transform="matrix(-1 -8.74228e-08 8.74944e-08 -1.00082 432.17 72.2049)"/><path d="M0 0 60.6698 0.000104966" stroke="#000000" stroke-width="1.00001" stroke-miterlimit="8" fill="none" fill-rule="evenodd" transform="matrix(-1 -8.74228e-08 -8.74944e-08 1.00082 432.17 30.5001)"/><path d="M0 0 60.6698 0.000104966" stroke="#000000" stroke-width="1.00001" stroke-miterlimit="8" fill="none" fill-rule="evenodd" transform="matrix(-1 -8.74228e-08 -8.74944e-08 1.00082 432.17 114.5)"/><path d="M0 0 60.6698 37.2668" stroke="#BFBFBF" stroke-width="1.00001" stroke-miterlimit="8" stroke-dasharray="3.00003 1.00001" fill="none" fill-rule="evenodd" transform="matrix(-1 -8.74228e-08 -8.74944e-08 1.00082 432.17 192.5)"/><path d="M0 8.493C-1.08216e-15 3.80245 3.80557-1.08127e-15 8.49998-2.16255e-15 13.1944-4.32509e-15 17 3.80245 17 8.493 17 13.1836 13.1944 16.986 8.49998 16.986 3.80557 16.986-5.41081e-15 13.1836 0 8.493Z" stroke="#7030A0" stroke-width="1.00001" stroke-miterlimit="8" fill="#7030A0" fill-rule="evenodd" transform="matrix(1 0 -0 1.00082 432.5 184.5)"/><path d="M0 8.49306C-1.08216e-15 3.80247 3.80557-1.08128e-15 8.49998-2.16256e-15 13.1944-4.32512e-15 17 3.80247 17 8.49306 17 13.1836 13.1944 16.9861 8.49998 16.9861 3.80557 16.9861-5.41081e-15 13.1836 0 8.49306Z" stroke="#7030A0" stroke-width="1.00001" stroke-miterlimit="8" fill="#FFFFFF" fill-rule="evenodd" transform="matrix(1 0 -0 1.00082 432.5 217.5)"/><path d="M0 8.49306C-1.08216e-15 3.80247 3.80557-1.08128e-15 8.49998-2.16256e-15 13.1944-4.32512e-15 17 3.80247 17 8.49306 17 13.1836 13.1944 16.9861 8.49998 16.9861 3.80557 16.9861-5.41081e-15 13.1836 0 8.49306Z" stroke="#7030A0" stroke-width="1.00001" stroke-miterlimit="8" fill="#FFFFFF" fill-rule="evenodd" transform="matrix(1 0 -0 1.00082 432.5 250.5)"/><path d="M0 8.49306C-1.14582e-15 3.80247 4.02943-1.08128e-15 8.99999-2.16256e-15 13.9705-4.32512e-15 18 3.80247 18 8.49306 18 13.1836 13.9705 16.9861 8.99999 16.9861 4.02943 16.9861-5.72909e-15 13.1836 0 8.49306Z" stroke="#4472C4" stroke-width="1.00001" stroke-miterlimit="8" fill="#4472C4" fill-rule="evenodd" transform="matrix(1 0 -0 1.00082 353.5 221.5)"/><path d="M0 8.99264C-1.14582e-15 4.02614 4.02943-1.14488e-15 8.99999-2.28977e-15 13.9705-4.57953e-15 18 4.02614 18 8.99264 18 13.9591 13.9705 17.9853 8.99999 17.9853 4.02943 17.9853-5.72909e-15 13.9591 0 8.99264Z" stroke="#4472C4" stroke-width="1.00001" stroke-miterlimit="8" fill="#FFFFFF" fill-rule="evenodd" transform="matrix(1 0 -0 1.00082 353.5 179.5)"/><path d="M0 0 60.0757 70.2922" stroke="#000000" stroke-width="1.00001" stroke-miterlimit="8" fill="none" fill-rule="evenodd" transform="matrix(-1 -8.74228e-08 -8.74944e-08 1.00082 431.576 159.5)"/><path d="M0 0 60.6698 28.7841" stroke="#000000" stroke-width="1.00001" stroke-miterlimit="8" fill="none" fill-rule="evenodd" transform="matrix(-1 -8.74228e-08 8.74944e-08 -1.00082 432.17 259.308)"/><path d="M0 0 60.0757 28.6216" stroke="#000000" stroke-width="1.00001" stroke-miterlimit="8" fill="none" fill-rule="evenodd" transform="matrix(-1 -8.74228e-08 -8.74944e-08 1.00082 431.576 159.5)"/><path d="M0 0 60.6698 4.40385" stroke="#000000" stroke-width="1.00001" stroke-miterlimit="8" fill="none" fill-rule="evenodd" transform="matrix(-1 -8.74228e-08 8.74944e-08 -1.00082 432.17 192.907)"/><path d="M0 0 24.918 0 24.918 26.0887 0 26.0887Z" fill="#CFD5EA" fill-rule="evenodd" transform="matrix(1 0 -0 1.00082 25.5489 41.4459)"/><path d="M24.918 0 49.8359 0 49.8359 26.0887 24.918 26.0887Z" fill="#CFD5EA" fill-rule="evenodd" transform="matrix(1 0 -0 1.00082 25.5489 41.4459)"/><path d="M49.8359 0 74.7539 0 74.7539 26.0887 49.8359 26.0887Z" fill="#CFD5EA" fill-rule="evenodd" transform="matrix(1 0 -0 1.00082 25.5489 41.4459)"/><path d="M74.7539 0 99.6719 0 99.6719 26.0887 74.7539 26.0887Z" fill="#CFD5EA" fill-rule="evenodd" transform="matrix(1 0 -0 1.00082 25.5489 41.4459)"/><path d="M99.6719 0 124.59 0 124.59 26.0887 99.6719 26.0887Z" fill="#CFD5EA" fill-rule="evenodd" transform="matrix(1 0 -0 1.00082 25.5489 41.4459)"/><path d="M124.59 0 149.508 0 149.508 26.0887 124.59 26.0887Z" fill="#CFD5EA" fill-rule="evenodd" transform="matrix(1 0 -0 1.00082 25.5489 41.4459)"/><path d="M149.508 0 174.426 0 174.426 26.0887 149.508 26.0887Z" fill="#CFD5EA" fill-rule="evenodd" transform="matrix(1 0 -0 1.00082 25.5489 41.4459)"/><path d="M174.426 0 199.344 0 199.344 26.0887 174.426 26.0887Z" fill="#CFD5EA" fill-rule="evenodd" transform="matrix(1 0 -0 1.00082 25.5489 41.4459)"/><path d="M199.344 0 224.262 0 224.262 26.0887 199.344 26.0887Z" fill="#CFD5EA" fill-rule="evenodd" transform="matrix(1 0 -0 1.00082 25.5489 41.4459)"/><path d="M224.262 0 249.18 0 249.18 26.0887 224.262 26.0887Z" fill="#CFD5EA" fill-rule="evenodd" transform="matrix(1 0 -0 1.00082 25.5489 41.4459)"/><path d="M0 26.0887 24.918 26.0887 24.918 52.1773 0 52.1773Z" fill="#E9EBF5" fill-rule="evenodd" transform="matrix(1 0 -0 1.00082 25.5489 41.4459)"/><path d="M24.918 26.0887 49.8359 26.0887 49.8359 52.1773 24.918 52.1773Z" fill="#E9EBF5" fill-rule="evenodd" transform="matrix(1 0 -0 1.00082 25.5489 41.4459)"/><path d="M49.8359 26.0887 74.7539 26.0887 74.7539 52.1773 49.8359 52.1773Z" fill="#E9EBF5" fill-rule="evenodd" transform="matrix(1 0 -0 1.00082 25.5489 41.4459)"/><path d="M74.7539 26.0887 99.6719 26.0887 99.6719 52.1773 74.7539 52.1773Z" fill="#E9EBF5" fill-rule="evenodd" transform="matrix(1 0 -0 1.00082 25.5489 41.4459)"/><path d="M99.6719 26.0887 124.59 26.0887 124.59 52.1773 99.6719 52.1773Z" fill="#92D050" fill-rule="evenodd" transform="matrix(1 0 -0 1.00082 25.5489 41.4459)"/><path d="M124.59 26.0887 149.508 26.0887 149.508 52.1773 124.59 52.1773Z" fill="#E9EBF5" fill-rule="evenodd" transform="matrix(1 0 -0 1.00082 25.5489 41.4459)"/><path d="M149.508 26.0887 174.426 26.0887 174.426 52.1773 149.508 52.1773Z" fill="#00B050" fill-rule="evenodd" transform="matrix(1 0 -0 1.00082 25.5489 41.4459)"/><path d="M174.426 26.0887 199.344 26.0887 199.344 52.1773 174.426 52.1773Z" fill="#92D050" fill-rule="evenodd" transform="matrix(1 0 -0 1.00082 25.5489 41.4459)"/><path d="M199.344 26.0887 224.262 26.0887 224.262 52.1773 199.344 52.1773Z" fill="#E9EBF5" fill-rule="evenodd" transform="matrix(1 0 -0 1.00082 25.5489 41.4459)"/><path d="M224.262 26.0887 249.18 26.0887 249.18 52.1773 224.262 52.1773Z" fill="#E9EBF5" fill-rule="evenodd" transform="matrix(1 0 -0 1.00082 25.5489 41.4459)"/><path d="M0 52.1773 24.918 52.1773 24.918 78.266 0 78.266Z" fill="#CFD5EA" fill-rule="evenodd" transform="matrix(1 0 -0 1.00082 25.5489 41.4459)"/><path d="M24.918 52.1773 49.8359 52.1773 49.8359 78.266 24.918 78.266Z" fill="#00B050" fill-rule="evenodd" transform="matrix(1 0 -0 1.00082 25.5489 41.4459)"/><path d="M49.8359 52.1773 74.7539 52.1773 74.7539 78.266 49.8359 78.266Z" fill="#CFD5EA" fill-rule="evenodd" transform="matrix(1 0 -0 1.00082 25.5489 41.4459)"/><path d="M74.7539 52.1773 99.6719 52.1773 99.6719 78.266 74.7539 78.266Z" fill="#92D050" fill-rule="evenodd" transform="matrix(1 0 -0 1.00082 25.5489 41.4459)"/><path d="M99.6719 52.1773 124.59 52.1773 124.59 78.266 99.6719 78.266Z" fill="#92D050" fill-rule="evenodd" transform="matrix(1 0 -0 1.00082 25.5489 41.4459)"/><path d="M124.59 52.1773 149.508 52.1773 149.508 78.266 124.59 78.266Z" fill="#CFD5EA" fill-rule="evenodd" transform="matrix(1 0 -0 1.00082 25.5489 41.4459)"/><path d="M149.508 52.1773 174.426 52.1773 174.426 78.266 149.508 78.266Z" fill="#92D050" fill-rule="evenodd" transform="matrix(1 0 -0 1.00082 25.5489 41.4459)"/><path d="M174.426 52.1773 199.344 52.1773 199.344 78.266 174.426 78.266Z" fill="#92D050" fill-rule="evenodd" transform="matrix(1 0 -0 1.00082 25.5489 41.4459)"/><path d="M199.344 52.1773 224.262 52.1773 224.262 78.266 199.344 78.266Z" fill="#CFD5EA" fill-rule="evenodd" transform="matrix(1 0 -0 1.00082 25.5489 41.4459)"/><path d="M224.262 52.1773 249.18 52.1773 249.18 78.266 224.262 78.266Z" fill="#CFD5EA" fill-rule="evenodd" transform="matrix(1 0 -0 1.00082 25.5489 41.4459)"/><path d="M0 78.266 24.918 78.266 24.918 104.355 0 104.355Z" fill="#E9EBF5" fill-rule="evenodd" transform="matrix(1 0 -0 1.00082 25.5489 41.4459)"/><path d="M24.918 78.266 49.8359 78.266 49.8359 104.355 24.918 104.355Z" fill="#E9EBF5" fill-rule="evenodd" transform="matrix(1 0 -0 1.00082 25.5489 41.4459)"/><path d="M49.8359 78.266 74.7539 78.266 74.7539 104.355 49.8359 104.355Z" fill="#E9EBF5" fill-rule="evenodd" transform="matrix(1 0 -0 1.00082 25.5489 41.4459)"/><path d="M74.7539 78.266 99.6719 78.266 99.6719 104.355 74.7539 104.355Z" fill="#E9EBF5" fill-rule="evenodd" transform="matrix(1 0 -0 1.00082 25.5489 41.4459)"/><path d="M99.6719 78.266 124.59 78.266 124.59 104.355 99.6719 104.355Z" fill="#92D050" fill-rule="evenodd" transform="matrix(1 0 -0 1.00082 25.5489 41.4459)"/><path d="M124.59 78.266 149.508 78.266 149.508 104.355 124.59 104.355Z" fill="#E9EBF5" fill-rule="evenodd" transform="matrix(1 0 -0 1.00082 25.5489 41.4459)"/><path d="M149.508 78.266 174.426 78.266 174.426 104.355 149.508 104.355Z" fill="#92D050" fill-rule="evenodd" transform="matrix(1 0 -0 1.00082 25.5489 41.4459)"/><path d="M174.426 78.266 199.344 78.266 199.344 104.355 174.426 104.355Z" fill="#92D050" fill-rule="evenodd" transform="matrix(1 0 -0 1.00082 25.5489 41.4459)"/><path d="M199.344 78.266 224.262 78.266 224.262 104.355 199.344 104.355Z" fill="#E9EBF5" fill-rule="evenodd" transform="matrix(1 0 -0 1.00082 25.5489 41.4459)"/><path d="M224.262 78.266 249.18 78.266 249.18 104.355 224.262 104.355Z" fill="#E9EBF5" fill-rule="evenodd" transform="matrix(1 0 -0 1.00082 25.5489 41.4459)"/><path d="M0 104.355 24.918 104.355 24.918 130.443 0 130.443Z" fill="#CFD5EA" fill-rule="evenodd" transform="matrix(1 0 -0 1.00082 25.5489 41.4459)"/><path d="M24.918 104.355 49.8359 104.355 49.8359 130.443 24.918 130.443Z" fill="#CFD5EA" fill-rule="evenodd" transform="matrix(1 0 -0 1.00082 25.5489 41.4459)"/><path d="M49.8359 104.355 74.7539 104.355 74.7539 130.443 49.8359 130.443Z" fill="#CFD5EA" fill-rule="evenodd" transform="matrix(1 0 -0 1.00082 25.5489 41.4459)"/><path d="M74.7539 104.355 99.6719 104.355 99.6719 130.443 74.7539 130.443Z" fill="#CFD5EA" fill-rule="evenodd" transform="matrix(1 0 -0 1.00082 25.5489 41.4459)"/><path d="M99.6719 104.355 124.59 104.355 124.59 130.443 99.6719 130.443Z" fill="#CFD5EA" fill-rule="evenodd" transform="matrix(1 0 -0 1.00082 25.5489 41.4459)"/><path d="M124.59 104.355 149.508 104.355 149.508 130.443 124.59 130.443Z" fill="#CFD5EA" fill-rule="evenodd" transform="matrix(1 0 -0 1.00082 25.5489 41.4459)"/><path d="M149.508 104.355 174.426 104.355 174.426 130.443 149.508 130.443Z" fill="#CFD5EA" fill-rule="evenodd" transform="matrix(1 0 -0 1.00082 25.5489 41.4459)"/><path d="M174.426 104.355 199.344 104.355 199.344 130.443 174.426 130.443Z" fill="#CFD5EA" fill-rule="evenodd" transform="matrix(1 0 -0 1.00082 25.5489 41.4459)"/><path d="M199.344 104.355 224.262 104.355 224.262 130.443 199.344 130.443Z" fill="#CFD5EA" fill-rule="evenodd" transform="matrix(1 0 -0 1.00082 25.5489 41.4459)"/><path d="M224.262 104.355 249.18 104.355 249.18 130.443 224.262 130.443Z" fill="#CFD5EA" fill-rule="evenodd" transform="matrix(1 0 -0 1.00082 25.5489 41.4459)"/><path d="M0 130.443 24.918 130.443 24.918 156.532 0 156.532Z" fill="#E9EBF5" fill-rule="evenodd" transform="matrix(1 0 -0 1.00082 25.5489 41.4459)"/><path d="M24.918 130.443 49.8359 130.443 49.8359 156.532 24.918 156.532Z" fill="#92D050" fill-rule="evenodd" transform="matrix(1 0 -0 1.00082 25.5489 41.4459)"/><path d="M49.8359 130.443 74.7539 130.443 74.7539 156.532 49.8359 156.532Z" fill="#E9EBF5" fill-rule="evenodd" transform="matrix(1 0 -0 1.00082 25.5489 41.4459)"/><path d="M74.7539 130.443 99.6719 130.443 99.6719 156.532 74.7539 156.532Z" fill="#92D050" fill-rule="evenodd" transform="matrix(1 0 -0 1.00082 25.5489 41.4459)"/><path d="M99.6719 130.443 124.59 130.443 124.59 156.532 99.6719 156.532Z" fill="#92D050" fill-rule="evenodd" transform="matrix(1 0 -0 1.00082 25.5489 41.4459)"/><path d="M124.59 130.443 149.508 130.443 149.508 156.532 124.59 156.532Z" fill="#E9EBF5" fill-rule="evenodd" transform="matrix(1 0 -0 1.00082 25.5489 41.4459)"/><path d="M149.508 130.443 174.426 130.443 174.426 156.532 149.508 156.532Z" fill="#92D050" fill-rule="evenodd" transform="matrix(1 0 -0 1.00082 25.5489 41.4459)"/><path d="M174.426 130.443 199.344 130.443 199.344 156.532 174.426 156.532Z" fill="#E9EBF5" fill-rule="evenodd" transform="matrix(1 0 -0 1.00082 25.5489 41.4459)"/><path d="M199.344 130.443 224.262 130.443 224.262 156.532 199.344 156.532Z" fill="#E9EBF5" fill-rule="evenodd" transform="matrix(1 0 -0 1.00082 25.5489 41.4459)"/><path d="M224.262 130.443 249.18 130.443 249.18 156.532 224.262 156.532Z" fill="#E9EBF5" fill-rule="evenodd" transform="matrix(1 0 -0 1.00082 25.5489 41.4459)"/><path d="M0 156.532 24.918 156.532 24.918 182.621 0 182.621Z" fill="#CFD5EA" fill-rule="evenodd" transform="matrix(1 0 -0 1.00082 25.5489 41.4459)"/><path d="M24.918 156.532 49.8359 156.532 49.8359 182.621 24.918 182.621Z" fill="#CFD5EA" fill-rule="evenodd" transform="matrix(1 0 -0 1.00082 25.5489 41.4459)"/><path d="M49.8359 156.532 74.7539 156.532 74.7539 182.621 49.8359 182.621Z" fill="#CFD5EA" fill-rule="evenodd" transform="matrix(1 0 -0 1.00082 25.5489 41.4459)"/><path d="M74.7539 156.532 99.6719 156.532 99.6719 182.621 74.7539 182.621Z" fill="#CFD5EA" fill-rule="evenodd" transform="matrix(1 0 -0 1.00082 25.5489 41.4459)"/><path d="M99.6719 156.532 124.59 156.532 124.59 182.621 99.6719 182.621Z" fill="#CFD5EA" fill-rule="evenodd" transform="matrix(1 0 -0 1.00082 25.5489 41.4459)"/><path d="M124.59 156.532 149.508 156.532 149.508 182.621 124.59 182.621Z" fill="#CFD5EA" fill-rule="evenodd" transform="matrix(1 0 -0 1.00082 25.5489 41.4459)"/><path d="M149.508 156.532 174.426 156.532 174.426 182.621 149.508 182.621Z" fill="#CFD5EA" fill-rule="evenodd" transform="matrix(1 0 -0 1.00082 25.5489 41.4459)"/><path d="M174.426 156.532 199.344 156.532 199.344 182.621 174.426 182.621Z" fill="#CFD5EA" fill-rule="evenodd" transform="matrix(1 0 -0 1.00082 25.5489 41.4459)"/><path d="M199.344 156.532 224.262 156.532 224.262 182.621 199.344 182.621Z" fill="#CFD5EA" fill-rule="evenodd" transform="matrix(1 0 -0 1.00082 25.5489 41.4459)"/><path d="M224.262 156.532 249.18 156.532 249.18 182.621 224.262 182.621Z" fill="#CFD5EA" fill-rule="evenodd" transform="matrix(1 0 -0 1.00082 25.5489 41.4459)"/><path d="M24.918-0.666534 24.918 183.287" stroke="#000000" stroke-width="1.33307" stroke-linejoin="round" stroke-miterlimit="10" fill="none" fill-rule="evenodd" transform="matrix(1 0 -0 1.00082 25.5489 41.4459)"/><path d="M49.8359-0.666534 49.8359 183.287" stroke="#000000" stroke-width="1.33307" stroke-linejoin="round" stroke-miterlimit="10" fill="none" fill-rule="evenodd" transform="matrix(1 0 -0 1.00082 25.5489 41.4459)"/><path d="M74.7539-0.666534 74.7539 183.287" stroke="#000000" stroke-width="1.33307" stroke-linejoin="round" stroke-miterlimit="10" fill="none" fill-rule="evenodd" transform="matrix(1 0 -0 1.00082 25.5489 41.4459)"/><path d="M99.6719-0.666534 99.6719 183.287" stroke="#000000" stroke-width="1.33307" stroke-linejoin="round" stroke-miterlimit="10" fill="none" fill-rule="evenodd" transform="matrix(1 0 -0 1.00082 25.5489 41.4459)"/><path d="M124.59-0.666534 124.59 183.287" stroke="#000000" stroke-width="1.33307" stroke-linejoin="round" stroke-miterlimit="10" fill="none" fill-rule="evenodd" transform="matrix(1 0 -0 1.00082 25.5489 41.4459)"/><path d="M149.508-0.666534 149.508 183.287" stroke="#000000" stroke-width="1.33307" stroke-linejoin="round" stroke-miterlimit="10" fill="none" fill-rule="evenodd" transform="matrix(1 0 -0 1.00082 25.5489 41.4459)"/><path d="M174.426-0.666534 174.426 183.287" stroke="#000000" stroke-width="1.33307" stroke-linejoin="round" stroke-miterlimit="10" fill="none" fill-rule="evenodd" transform="matrix(1 0 -0 1.00082 25.5489 41.4459)"/><path d="M199.344-0.666534 199.344 183.287" stroke="#000000" stroke-width="1.33307" stroke-linejoin="round" stroke-miterlimit="10" fill="none" fill-rule="evenodd" transform="matrix(1 0 -0 1.00082 25.5489 41.4459)"/><path d="M224.262-0.666534 224.262 183.287" stroke="#000000" stroke-width="1.33307" stroke-linejoin="round" stroke-miterlimit="10" fill="none" fill-rule="evenodd" transform="matrix(1 0 -0 1.00082 25.5489 41.4459)"/><path d="M-0.666534 26.0887 249.846 26.0887" stroke="#000000" stroke-width="1.33307" stroke-linejoin="round" stroke-miterlimit="10" fill="none" fill-rule="evenodd" transform="matrix(1 0 -0 1.00082 25.5489 41.4459)"/><path d="M-0.666534 52.1773 249.846 52.1773" stroke="#000000" stroke-width="1.33307" stroke-linejoin="round" stroke-miterlimit="10" fill="none" fill-rule="evenodd" transform="matrix(1 0 -0 1.00082 25.5489 41.4459)"/><path d="M-0.666534 78.266 249.846 78.266" stroke="#000000" stroke-width="1.33307" stroke-linejoin="round" stroke-miterlimit="10" fill="none" fill-rule="evenodd" transform="matrix(1 0 -0 1.00082 25.5489 41.4459)"/><path d="M-0.666534 104.355 249.846 104.355" stroke="#000000" stroke-width="1.33307" stroke-linejoin="round" stroke-miterlimit="10" fill="none" fill-rule="evenodd" transform="matrix(1 0 -0 1.00082 25.5489 41.4459)"/><path d="M-0.666534 130.443 249.846 130.443" stroke="#000000" stroke-width="1.33307" stroke-linejoin="round" stroke-miterlimit="10" fill="none" fill-rule="evenodd" transform="matrix(1 0 -0 1.00082 25.5489 41.4459)"/><path d="M-0.666534 156.532 249.846 156.532" stroke="#000000" stroke-width="1.33307" stroke-linejoin="round" stroke-miterlimit="10" fill="none" fill-rule="evenodd" transform="matrix(1 0 -0 1.00082 25.5489 41.4459)"/><path d="M0-0.666534 0 183.287" stroke="#000000" stroke-width="1.33307" stroke-linejoin="round" stroke-miterlimit="10" fill="none" fill-rule="evenodd" transform="matrix(1 0 -0 1.00082 25.5489 41.4459)"/><path d="M249.18-0.666534 249.18 183.287" stroke="#000000" stroke-width="1.33307" stroke-linejoin="round" stroke-miterlimit="10" fill="none" fill-rule="evenodd" transform="matrix(1 0 -0 1.00082 25.5489 41.4459)"/><path d="M-0.666534 0 249.846 0" stroke="#000000" stroke-width="1.33307" stroke-linejoin="round" stroke-miterlimit="10" fill="none" fill-rule="evenodd" transform="matrix(1 0 -0 1.00082 25.5489 41.4459)"/><path d="M-0.666534 182.621 249.846 182.621" stroke="#000000" stroke-width="1.33307" stroke-linejoin="round" stroke-miterlimit="10" fill="none" fill-rule="evenodd" transform="matrix(1 0 -0 1.00082 25.5489 41.4459)"/><text font-family="Calibri,Calibri_MSFontService,sans-serif" font-weight="700" font-size="13" transform="matrix(1 0 0 1.00082 35.147 58)">1<tspan x="24.918" y="0">2</tspan><tspan x="49.8359" y="0">5</tspan><tspan x="99.6719" y="0">2</tspan><tspan x="199.344" y="0">4</tspan><tspan x="99.6719" y="25.9787">4</tspan><tspan x="149.508" y="25.9787">5</tspan><tspan x="174.426" y="25.9787">2</tspan><tspan x="24.918" y="52.9566">1</tspan><tspan x="74.7539" y="52.9566">4</tspan><tspan x="99.6719" y="52.9566">3</tspan><tspan x="149.508" y="52.9566">5</tspan><tspan x="0" y="78.9353">5</tspan><tspan x="149.508" y="78.9353">5</tspan><tspan x="174.426" y="78.9353">1</tspan><tspan x="199.344" y="78.9353">2</tspan><tspan x="49.8359" y="104.914">1</tspan><tspan x="74.7539" y="104.914">2</tspan><tspan x="124.59" y="104.914">5</tspan><tspan x="174.426" y="104.914">5</tspan><tspan x="224.262" y="104.914">4</tspan><tspan x="24.918" y="130.893">1</tspan><tspan x="74.7539" y="130.893">4</tspan><tspan x="124.59" y="130.893">4</tspan><tspan x="199.344" y="130.893">1</tspan><tspan x="0" y="156.871">5</tspan><tspan x="49.8359" y="156.871">4</tspan><tspan x="124.59" y="156.871">3</tspan><tspan x="174.426" y="156.871">2</tspan><tspan x="224.262" y="156.871">5</tspan></text><text font-family="Calibri,Calibri_MSFontService,sans-serif" font-weight="700" font-size="16" transform="matrix(-1.83697e-16 -1.00164 0.999181 -1.83848e-16 16.2696 153)">Users</text><text font-family="Calibri,Calibri_MSFontService,sans-serif" font-weight="700" font-size="16" transform="matrix(1 0 0 1.00082 131.381 34)">Items</text><rect x="0" y="0" width="12" height="12.9893" stroke="#000000" stroke-width="1.00001" stroke-miterlimit="8" fill="#FFFFFF" transform="matrix(1 0 -0 1.00082 378.5 54.5)"/><text font-family="Calibri,Calibri_MSFontService,sans-serif" font-weight="400" font-size="14" transform="matrix(1 0 0 1.00082 380.652 65)">4</text><rect x="0" y="0" width="12" height="11.9902" stroke="#000000" stroke-width="1.00001" stroke-miterlimit="8" fill="#FFFFFF" transform="matrix(1 0 -0 1.00082 378.5 81.5)"/><text font-family="Calibri,Calibri_MSFontService,sans-serif" font-weight="400" font-size="14" transform="matrix(1 0 0 1.00082 380.652 92)">2</text><rect x="0" y="0" width="11.9999" height="11.9902" stroke="#000000" stroke-width="1.00001" stroke-miterlimit="8" fill="#FFFFFF" transform="matrix(1 0 -0 1.00082 414.5 54.5)"/><text font-family="Calibri,Calibri_MSFontService,sans-serif" font-weight="400" font-size="14" transform="matrix(1 0 0 1.00082 416.38 65)">5</text><rect x="0" y="0" width="11.9999" height="11.9902" stroke="#000000" stroke-width="1.00001" stroke-miterlimit="8" fill="#FFFFFF" transform="matrix(1 0 -0 1.00082 414.5 81.5)"/><text font-family="Calibri,Calibri_MSFontService,sans-serif" font-weight="400" font-size="14" transform="matrix(1 0 0 1.00082 416.71 92)">5</text><rect x="0" y="0" width="12" height="11.9902" stroke="#000000" stroke-width="1.00001" stroke-miterlimit="8" fill="#FFFFFF" transform="matrix(1 0 -0 1.00082 396.5 25.5)"/><text font-family="Calibri,Calibri_MSFontService,sans-serif" font-weight="400" font-size="14" transform="matrix(1 0 0 1.00082 398.521 36)">3</text><rect x="0" y="0" width="12" height="11.9902" stroke="#000000" stroke-width="1.00001" stroke-miterlimit="8" fill="#FFFFFF" transform="matrix(1 0 -0 1.00082 396.5 109.5)"/><text font-family="Calibri,Calibri_MSFontService,sans-serif" font-weight="400" font-size="14" transform="matrix(1 0 0 1.00082 398.521 120)">1</text><rect x="0" y="0" width="12" height="11.9902" stroke="#00B050" stroke-width="1.00001" stroke-miterlimit="8" fill="#00B050" transform="matrix(1 0 -0 1.00082 396.5 67.5)"/><text font-family="Calibri,Calibri_MSFontService,sans-serif" font-weight="700" font-size="13" transform="matrix(1 0 0 1.00082 399.018 77)">?</text><path d="M0 4.65235C-8.43451e-16 2.08293 2.08292-1.6869e-15 4.65234-1.6869e-15L101.348 0C103.917 -8.43452e-16 106 2.08293 106 4.65235L106 79.2788C106 81.8483 103.917 83.9312 101.348 83.9312L4.65234 83.9312C2.08292 83.9312 0 81.8483 0 79.2788Z" stroke="#000000" stroke-width="1.00001" stroke-miterlimit="8" stroke-dasharray="3.00003 1.00001" fill="none" fill-rule="evenodd" transform="matrix(1 0 -0 1.00082 122.5 64.5)"/><path d="M0.144553-0.478654 106.917 31.7664 106.628 32.7238-0.144553 0.478654ZM106.652 28.0313 113.153 34.1721 104.34 35.6881Z" transform="matrix(1 0 0 -1.00082 228.5 106.7)"/><path d="M0 6.03694C-1.23335e-15 2.70283 2.70283-1.23335e-15 6.03693-2.4667e-15L148.963 0C152.297-1.23335e-15 155 2.70283 155 6.03694L155 102.874C155 106.208 152.297 108.911 148.963 108.911L6.03693 108.911C2.70283 108.911 0 106.208 0 102.874Z" stroke="#000000" stroke-width="1.00001" stroke-miterlimit="8" stroke-dasharray="3.00003 1.00001" fill="none" fill-rule="evenodd" transform="matrix(1 0 -0 1.00082 47.5 91.5001)"/><path d="M0.122383-0.484796 132.541 32.9432 132.296 33.9128-0.122383 0.484796ZM132.105 29.2242 138.881 35.0595 130.147 36.9793Z" transform="matrix(1 0 -0 1.00082 202.5 162.5)"/><path d="M0 8.49306C-1.14582e-15 3.80247 4.02943-1.08128e-15 8.99999-2.16256e-15 13.9705-4.32512e-15 18 3.80247 18 8.49306 18 13.1836 13.9705 16.9861 8.99999 16.9861 4.02943 16.9861-5.72909e-15 13.1836 0 8.49306Z" stroke="#7030A0" stroke-width="1.00001" stroke-miterlimit="8" fill="#FFFFFF" fill-rule="evenodd" transform="matrix(1 0 -0 1.00082 431.5 151.5)"/><path d="M0 0 60.6698 4.24136" stroke="#000000" stroke-width="1.00001" stroke-miterlimit="8" fill="none" fill-rule="evenodd" transform="matrix(-1 -8.74228e-08 -8.74944e-08 1.00082 432.17 225.5)"/><rect x="0" y="0" width="12" height="12.9894" stroke="#000000" stroke-width="1.00001" stroke-miterlimit="8" fill="#FFFFFF" transform="matrix(1 0 -0 1.00082 412.5 172.5)"/><text font-family="Calibri,Calibri_MSFontService,sans-serif" font-weight="400" font-size="14" transform="matrix(1 0 0 1.00082 414.641 183)">4</text><rect x="0" y="0" width="11.9999" height="11.9903" stroke="#000000" stroke-width="1.00001" stroke-miterlimit="8" fill="#FFFFFF" transform="matrix(1 0 -0 1.00082 403.5 222.5)"/><text font-family="Calibri,Calibri_MSFontService,sans-serif" font-weight="400" font-size="14" transform="matrix(1 0 0 1.00082 405.27 233)">3</text><rect x="0" y="0" width="11.9999" height="12.9894" stroke="#000000" stroke-width="1.00001" stroke-miterlimit="8" fill="#FFFFFF" transform="matrix(1 0 -0 1.00082 403.5 242.5)"/><text font-family="Calibri,Calibri_MSFontService,sans-serif" font-weight="400" font-size="14" transform="matrix(1 0 0 1.00082 405.27 253)">5</text><rect x="0" y="0" width="12" height="11.9902" stroke="#000000" stroke-width="1.00001" stroke-miterlimit="8" fill="#FFFFFF" transform="matrix(1 0 -0 1.00082 387.5 183.5)"/><text font-family="Calibri,Calibri_MSFontService,sans-serif" font-weight="400" font-size="14" transform="matrix(1 0 0 1.00082 389.569 194)">1</text><rect x="0" y="0" width="11" height="11.9902" stroke="#000000" stroke-width="1.00001" stroke-miterlimit="8" fill="#FFFFFF" transform="matrix(1 0 -0 1.00082 397.5 165.5)"/><text font-family="Calibri,Calibri_MSFontService,sans-serif" font-weight="400" font-size="14" transform="matrix(1 0 0 1.00082 399.107 176)">4</text><rect x="0" y="0" width="11.9999" height="11.9902" stroke="#00B050" stroke-width="1.00001" stroke-miterlimit="8" fill="#00B050" transform="matrix(1 0 -0 1.00082 403.5 203.5)"/><text font-family="Calibri,Calibri_MSFontService,sans-serif" font-weight="700" font-size="13" transform="matrix(1 0 0 1.00082 405.928 213)">?<tspan font-size="16" x="16.0973" y="-197.838">Items</tspan><tspan font-size="16" x="-61.9265" y="-197.838">Users</tspan></text><rect x="0" y="0" width="20" height="18.9845" stroke="#00B050" stroke-width="1.00001" stroke-miterlimit="8" fill="#00B050" transform="matrix(1 0 -0 1.00082 751.5 50.5)"/><text font-family="Calibri,Calibri_MSFontService,sans-serif" font-weight="700" font-size="16" transform="matrix(1 0 0 1.00082 756.937 65)">5<tspan font-family="Times New Roman,Times New Roman_MSFontService,sans-serif" x="17.3985" y="147.879">(dislike)</tspan></text><rect x="0" y="0" width="20" height="18.9845" stroke="#00B050" stroke-width="1.00001" stroke-miterlimit="8" fill="#00B050" transform="matrix(1 0 -0 1.00082 751.5 199.5)"/><text font-family="Calibri,Calibri_MSFontService,sans-serif" font-weight="700" font-size="16" transform="matrix(1 0 0 1.00082 756.937 214)">1</text><path d="M0 0 0.000104966 183.657" stroke="#4472C4" stroke-width="4.00004" stroke-miterlimit="8" fill="none" fill-rule="evenodd" transform="matrix(-1 -8.74228e-08 -8.74944e-08 1.00082 26.0001 41)"/><path d="M0 0 252.111 0.13803" stroke="#7030A0" stroke-width="4.00004" stroke-miterlimit="8" fill="none" fill-rule="evenodd" transform="matrix(1 0 -0 1.00082 24 42)"/><path d="M0 4.99591C-6.36567e-16 2.23674 2.23858 -6.36045e-16 5-1.27209e-15 7.76142-2.54418e-15 10 2.23674 10 4.99591 10 7.75507 7.76142 9.99181 5 9.99181 2.23858 9.99181-3.18283e-15 7.75507 0 4.99591Z" stroke="#4472C4" stroke-width="1.00001" stroke-miterlimit="8" fill="#4472C4" fill-rule="evenodd" transform="matrix(1 0 -0 1.00082 546.5 93.5)"/><path d="M0 4.99591C-6.36567e-16 2.23674 2.23858 -6.36045e-16 5-1.27209e-15 7.76142-2.54418e-15 10 2.23674 10 4.99591 10 7.75507 7.76142 9.99181 5 9.99181 2.23858 9.99181-3.18283e-15 7.75507 0 4.99591Z" stroke="#7030A0" stroke-width="1.00001" stroke-miterlimit="8" fill="none" fill-rule="evenodd" transform="matrix(1 0 -0 1.00082 576.5 93.5)"/><path d="M0 4.99591C-6.36567e-16 2.23674 2.23858 -6.36045e-16 5-1.27209e-15 7.76142-2.54418e-15 10 2.23674 10 4.99591 10 7.75507 7.76142 9.99181 5 9.99181 2.23858 9.99181-3.18283e-15 7.75507 0 4.99591Z" stroke="#4472C4" stroke-width="1.00001" stroke-miterlimit="8" fill="none" fill-rule="evenodd" transform="matrix(1 0 -0 1.00082 609.5 93.5)"/><path d="M0 4.99591C-6.36567e-16 2.23674 2.23858 -6.36045e-16 5-1.27209e-15 7.76142-2.54418e-15 10 2.23674 10 4.99591 10 7.75507 7.76142 9.99181 5 9.99181 2.23858 9.99181-3.18283e-15 7.75507 0 4.99591Z" stroke="#7030A0" stroke-width="1.00001" stroke-miterlimit="8" fill="#7030A0" fill-rule="evenodd" transform="matrix(1 0 -0 1.00082 641.5 93.5)"/><path d="M0 4.99591C-6.36567e-16 2.23674 2.23858 -6.36045e-16 5-1.27209e-15 7.76142-2.54418e-15 10 2.23674 10 4.99591 10 7.75507 7.76142 9.99181 5 9.99181 2.23858 9.99181-3.18283e-15 7.75507 0 4.99591Z" stroke="#4472C4" stroke-width="1.00001" stroke-miterlimit="8" fill="#4472C4" fill-rule="evenodd" transform="matrix(1 0 -0 1.00082 546.5 109.5)"/><path d="M0 4.99591C-6.36567e-16 2.23674 2.23858 -6.36045e-16 5-1.27209e-15 7.76142-2.54418e-15 10 2.23674 10 4.99591 10 7.75507 7.76142 9.99181 5 9.99181 2.23858 9.99181-3.18283e-15 7.75507 0 4.99591Z" stroke="#7030A0" stroke-width="1.00001" stroke-miterlimit="8" fill="none" fill-rule="evenodd" transform="matrix(1 0 -0 1.00082 576.5 109.5)"/><path d="M0 4.99591C-6.36567e-16 2.23674 2.23858 -6.36045e-16 5-1.27209e-15 7.76142-2.54418e-15 10 2.23674 10 4.99591 10 7.75507 7.76142 9.99181 5 9.99181 2.23858 9.99181-3.18283e-15 7.75507 0 4.99591Z" stroke="#4472C4" stroke-width="1.00001" stroke-miterlimit="8" fill="none" fill-rule="evenodd" transform="matrix(1 0 -0 1.00082 609.5 109.5)"/><path d="M0 4.99591C-5.72909e-16 2.23674 2.01472 -6.36045e-16 4.49999-1.27209e-15 6.98527-2.54418e-15 8.99999 2.23674 8.99999 4.99591 8.99999 7.75507 6.98527 9.99181 4.49999 9.99181 2.01472 9.99181-2.86455e-15 7.75507 0 4.99591Z" stroke="#7030A0" stroke-width="1.00001" stroke-miterlimit="8" fill="#7030A0" fill-rule="evenodd" transform="matrix(1 0 -0 1.00082 642.5 109.5)"/><path d="M0 4.99591C-6.36567e-16 2.23674 2.23858 -6.36045e-16 5-1.27209e-15 7.76142-2.54418e-15 10 2.23674 10 4.99591 10 7.75507 7.76142 9.99181 5 9.99181 2.23858 9.99181-3.18283e-15 7.75507 0 4.99591Z" stroke="#4472C4" stroke-width="1.00001" stroke-miterlimit="8" fill="#4472C4" fill-rule="evenodd" transform="matrix(1 0 -0 1.00082 546.5 225.5)"/><path d="M0 4.99591C-6.36567e-16 2.23674 2.23858 -6.36045e-16 5-1.27209e-15 7.76142-2.54418e-15 10 2.23674 10 4.99591 10 7.75507 7.76142 9.99181 5 9.99181 2.23858 9.99181-3.18283e-15 7.75507 0 4.99591Z" stroke="#7030A0" stroke-width="1.00001" stroke-miterlimit="8" fill="none" fill-rule="evenodd" transform="matrix(1 0 -0 1.00082 576.5 225.5)"/><path d="M0 4.99591C-6.36567e-16 2.23674 2.23858 -6.36045e-16 5-1.27209e-15 7.76142-2.54418e-15 10 2.23674 10 4.99591 10 7.75507 7.76142 9.99181 5 9.99181 2.23858 9.99181-3.18283e-15 7.75507 0 4.99591Z" stroke="#4472C4" stroke-width="1.00001" stroke-miterlimit="8" fill="none" fill-rule="evenodd" transform="matrix(1 0 -0 1.00082 609.5 225.5)"/><path d="M0 4.99591C-6.36567e-16 2.23674 2.23858 -6.36045e-16 5-1.27209e-15 7.76142-2.54418e-15 10 2.23674 10 4.99591 10 7.75507 7.76142 9.99181 5 9.99181 2.23858 9.99181-3.18283e-15 7.75507 0 4.99591Z" stroke="#7030A0" stroke-width="1.00001" stroke-miterlimit="8" fill="#7030A0" fill-rule="evenodd" transform="matrix(1 0 -0 1.00082 641.5 225.5)"/></g></svg>